<?xml version="1.0" encoding="UTF-8" standalone="no"?>
<svg
   xmlns:dc="http://purl.org/dc/elements/1.1/"
   xmlns:cc="http://creativecommons.org/ns#"
   xmlns:rdf="http://www.w3.org/1999/02/22-rdf-syntax-ns#"
   xmlns:svg="http://www.w3.org/2000/svg"
   xmlns="http://www.w3.org/2000/svg"
   xmlns:sodipodi="http://sodipodi.sourceforge.net/DTD/sodipodi-0.dtd"
   xmlns:inkscape="http://www.inkscape.org/namespaces/inkscape"
   version="1.0"
   width="220.000000pt"
   height="220.000000pt"
   viewBox="0 0 220.000000 220.000000"
   preserveAspectRatio="xMidYMid meet"
   id="svg836"
   sodipodi:docname="recipes-book.svg"
   inkscape:version="1.0.2 (e86c8708, 2021-01-15)">
  <metadata
     id="metadata842">
    <rdf:RDF>
      <cc:Work
         rdf:about="">
        <dc:format>image/svg+xml</dc:format>
        <dc:type
           rdf:resource="http://purl.org/dc/dcmitype/StillImage" />
      </cc:Work>
    </rdf:RDF>
  </metadata>
  <defs
     id="defs840" />
  <sodipodi:namedview
     pagecolor="#ffffff"
     bordercolor="#666666"
     borderopacity="1"
     objecttolerance="10"
     gridtolerance="10"
     guidetolerance="10"
     inkscape:pageopacity="0"
     inkscape:pageshadow="2"
     inkscape:window-width="1121"
     inkscape:window-height="877"
     id="namedview838"
     showgrid="false"
     inkscape:zoom="1.7965909"
     inkscape:cx="146.66667"
     inkscape:cy="142.12651"
     inkscape:window-x="1439"
     inkscape:window-y="23"
     inkscape:window-maximized="0"
     inkscape:current-layer="svg836" />
  <g
     id="g854"
     transform="matrix(1.5887818,0,0,1.4713573,-58.919459,-31.854908)">
    <path
       d="m 41.379317,25.010779 c -1.6,0.927026 -1.7,4.635129 -1.5,63.96478 l 0.3,62.960501 5.8,0.23176 5.7,0.23175 v 7.1072 c 0,10.12003 1.1,10.73805 10.9,6.25743 l 6,-2.78108 5.9,2.78108 c 3.3,1.54504 6.7,2.78107 7.5,2.78107 2.7,0 3.7,-2.62657 3.7,-9.57926 v -6.64369 h 33.500003 c 36.3,0 37,-0.0772 44.3,-4.40337 1.9,-1.08153 4.5,-3.78536 5.8,-5.94842 l 2.4,-3.93986 V 88.203038 c 0,-55.621548 0.3,-53.072228 -7.1,-58.479878 -7.4,-5.407651 -5.4,-5.253146 -66.400003,-5.484903 -43.9,-0.154504 -55.4,0 -56.8,0.772522 z m 14.3,63.578519 v 58.325372 h -4.5 -4.5 V 88.589298 30.263925 h 4.5 4.5 z M 156.77932,32.040724 c 1.8,0.927026 4.4,2.935582 5.6,4.326121 l 2.3,2.626573 v 48.977863 c 0,54.617269 0.3,52.299709 -6.8,56.471319 l -3.5,2.08581 -45.9,0.23176 -45.800003,0.23175 V 88.589298 30.263925 h 45.400003 45.3 z M 78.679317,156.57119 c 0,2.31756 -0.2,4.24887 -0.5,4.24887 -0.3,0 -2.6,-0.92703 -5.3,-2.08581 l -4.7,-2.00856 -4.2,2.00856 c -2.4,1.15878 -4.5,2.08581 -4.8,2.08581 -0.3,0 -0.5,-1.93131 -0.5,-4.24887 v -4.24887 h 10 10 z"
       id="path830"
       style="fill:#000000;stroke:none;stroke-width:0.0878932" />
    <path
       d="m 83.849432,47.76971 c -5.953664,1.376814 -9.548329,4.380777 -12.244327,10.138371 -4.717998,10.513866 -0.449333,24.90785 8.649662,28.537636 l 3.931664,1.627145 v 19.525748 c 0,13.51783 0.449334,20.02642 1.348,21.02775 1.909665,2.12778 50.437639,2.12778 52.347309,0 0.89866,-1.00133 1.348,-7.50992 1.348,-21.02775 l 0.11233,-19.400582 4.718,-2.503301 c 6.40299,-3.379458 9.77299,-9.262217 9.77299,-17.147614 0,-8.135731 -2.696,-14.26882 -7.97566,-18.148937 -5.16733,-3.754953 -13.36766,-4.255612 -18.75966,-1.126485 -3.37,1.877475 -3.81933,1.877475 -7.18933,0 -4.718,-2.753632 -11.68266,-2.753632 -16.40066,0 -2.92066,1.627146 -4.043996,1.752311 -6.065992,0.625824 -4.156331,-2.503302 -9.098995,-3.254292 -13.592326,-2.127805 z m 11.907327,11.890681 c 3.931665,3.629787 4.380991,3.629787 8.312661,-0.125163 5.055,-4.756275 10.55933,-4.756275 15.38966,-0.125163 4.044,3.880116 4.83033,3.880116 8.64966,-0.125163 5.50433,-5.882759 14.49099,-3.880119 17.41166,3.880116 2.58366,7.009244 -1.12333,14.769479 -7.86333,16.396625 -5.95366,1.376816 -6.29066,2.252971 -6.29066,15.645634 V 107.59862 H 111.70808 92.049761 V 95.207277 c 0,-13.392663 -0.337,-14.268818 -6.402997,-15.770799 -4.830331,-1.126487 -8.200329,-6.007923 -8.200329,-11.765517 0,-5.882758 2.471332,-9.762877 7.076996,-11.139692 4.605665,-1.376815 7.301663,-0.625825 11.233328,3.129127 z m 35.609651,59.203079 c 0,2.37814 -0.78634,2.5033 -19.65833,2.5033 -18.871986,0 -19.658319,-0.12511 -19.658319,-2.5033 0,-2.37814 0.786333,-2.50329 19.658319,-2.50329 18.87199,0 19.65833,0.12524 19.65833,2.50329 z"
       id="path832"
       style="fill:#000000;stroke:none;stroke-width:0.118576" />
  </g>
</svg>
